<?xml version="1.0" encoding="UTF-8"?>
<svg viewBox="0 0 1280 720" width="1280" height="720" xmlns="http://www.w3.org/2000/svg" role="img" aria-labelledby="component-diagram-dark-title component-diagram-dark-desc">
<title id="component-diagram-dark-title">Component Diagram</title>
<desc id="component-diagram-dark-desc">C4-style logical component view inside the PySide6 desktop application container.</desc>
<defs><style>@import url('https://fonts.googleapis.com/css2?family=Instrument+Serif:ital@0;1&amp;family=Geist:wght@400;500;600&amp;family=Geist+Mono:wght@400;500;600&amp;display=swap');</style>
<marker id="arr" markerWidth="8" markerHeight="6" refX="7" refY="3" orient="auto"><polygon points="0 0,8 3,0 6" fill="#8B949E"/></marker>
<marker id="arr-accent" markerWidth="8" markerHeight="6" refX="7" refY="3" orient="auto"><polygon points="0 0,8 3,0 6" fill="#FB7185"/></marker>
<marker id="arr-link" markerWidth="8" markerHeight="6" refX="7" refY="3" orient="auto"><polygon points="0 0,8 3,0 6" fill="#38BDF8"/></marker>
</defs>
<rect width="100%" height="100%" fill="#0D1117"/>
<text data-role="text" x="48" y="40" fill="#8B949E" font-family="'Geist Mono',ui-monospace,monospace" font-size="8" font-weight="500" text-anchor="start" letter-spacing=".18em">COMPONENT DIAGRAM · DIAGRAM DESIGN</text>
<text data-role="text" x="48" y="76" fill="#F0F6FC" font-family="'Instrument Serif',serif" font-size="28" font-weight="400" text-anchor="start">Windows Shutdown Timer</text>
<g transform="translate(0 100)">
<rect data-role="zone" x="36" y="44" width="996" height="430" rx="8" fill="#f0f6fc" fill-opacity="0.025" stroke="#f0f6fc" stroke-opacity="0.18" stroke-width=".8"/><rect x="52" y="52" width="416" height="16" rx="2" fill="#0D1117"/><text data-role="text" x="60" y="64" fill="#6E7681" font-family="'Geist Mono',ui-monospace,monospace" font-size="8" font-weight="600" text-anchor="start" letter-spacing=".14em">WINDOWS SHUTDOWN TIMER · PYSIDE6 DESKTOP APPLICATION</text><line data-role="connector" x1="250" y1="178" x2="430" y2="178" stroke="#8B949E" stroke-width="1.2" marker-end="url(#arr)"/><rect data-role="label-mask" x="291.0" y="153" width="98" height="14" rx="2" fill="#0D1117"/><text data-role="text" x="340.0" y="163" fill="#8B949E" font-family="'Geist Mono',ui-monospace,monospace" font-size="8" font-weight="500" text-anchor="middle" letter-spacing=".06em">START / CANCEL</text><line data-role="connector" x1="630" y1="178" x2="760" y2="178" stroke="#FB7185" stroke-width="1.4" marker-end="url(#arr-accent)"/><rect data-role="label-mask" x="649.5" y="153" width="91" height="14" rx="2" fill="#0D1117"/><text data-role="text" x="695.0" y="163" fill="#FB7185" font-family="'Geist Mono',ui-monospace,monospace" font-size="8" font-weight="500" text-anchor="middle" letter-spacing=".06em">POWER REQUEST</text><line data-role="connector" x1="940" y1="178" x2="1080" y2="178" stroke="#38BDF8" stroke-width="1.2" marker-end="url(#arr-link)"/><rect data-role="label-mask" x="961.0" y="153" width="98" height="14" rx="2" fill="#0D1117"/><text data-role="text" x="1010.0" y="163" fill="#38BDF8" font-family="'Geist Mono',ui-monospace,monospace" font-size="8" font-weight="500" text-anchor="middle" letter-spacing=".06em">NATIVE COMMAND</text><line data-role="connector" x1="160" y1="226" x2="160" y2="334" stroke="#8B949E" stroke-width="1.2" stroke-dasharray="5,4" marker-end="url(#arr)"/><rect data-role="label-mask" x="172" y="270.0" width="84" height="14" rx="2" fill="#0D1117"/><text data-role="text" x="176" y="280.0" fill="#8B949E" font-family="'Geist Mono',ui-monospace,monospace" font-size="8" font-weight="500" text-anchor="start" letter-spacing=".06em">THEME / TEXT</text><path data-role="connector" d="M 250,206 H 266 Q 274,206 274,214 V 374 Q 274,382 282,382 H 300" fill="none" stroke="#8B949E" stroke-width="1.2" stroke-dasharray="5,4" marker-end="url(#arr)"/><rect data-role="label-mask" x="284" y="284.0" width="91" height="14" rx="2" fill="#0D1117"/><text data-role="text" x="288" y="294.0" fill="#8B949E" font-family="'Geist Mono',ui-monospace,monospace" font-size="8" font-weight="500" text-anchor="start" letter-spacing=".06em">LEGACY ACCESS</text><line data-role="connector" x1="630" y1="226" x2="630" y2="334" stroke="#8B949E" stroke-width="1.2" marker-end="url(#arr)"/><rect data-role="label-mask" x="642" y="270.0" width="84" height="14" rx="2" fill="#0D1117"/><text data-role="text" x="646" y="280.0" fill="#8B949E" font-family="'Geist Mono',ui-monospace,monospace" font-size="8" font-weight="500" text-anchor="start" letter-spacing=".06em">START / STOP</text><path data-role="connector" d="M 630,206 H 736 Q 744,206 744,214 V 374 Q 744,382 752,382 H 780" fill="none" stroke="#8B949E" stroke-width="1.2" marker-end="url(#arr)"/><rect data-role="label-mask" x="754" y="284.0" width="70" height="14" rx="2" fill="#0D1117"/><text data-role="text" x="758" y="294.0" fill="#8B949E" font-family="'Geist Mono',ui-monospace,monospace" font-size="8" font-weight="500" text-anchor="start" letter-spacing=".06em">SAVE TIMER</text><path data-role="connector" d="M 250,206 H 262 Q 270,206 270,214 V 454 Q 270,462 278,462 H 862 Q 870,462 870,454 V 430" fill="none" stroke="#8B949E" stroke-width="1" stroke-dasharray="5,4" marker-end="url(#arr)"/><rect data-role="label-mask" x="510" y="438" width="122" height="14" rx="2" fill="#0D1117"/><text data-role="text" x="571" y="448" fill="#8B949E" font-family="'Geist Mono',ui-monospace,monospace" font-size="8" font-weight="500" text-anchor="middle" letter-spacing=".04em">LOAD / SAVE WINDOW</text><rect x="70" y="130" width="180" height="96" rx="6" fill="#0D1117"/><rect data-role="node" x="70" y="130" width="180" height="96" rx="6" fill="#161B22" stroke="#30363D" stroke-width="1"/><rect x="80" y="138" width="36" height="14" rx="2" fill="none" stroke="#30363D" stroke-opacity=".45" stroke-width=".8"/><text data-role="text" x="98" y="148" fill="#30363D" font-family="'Geist Mono',ui-monospace,monospace" font-size="8" font-weight="600" text-anchor="middle" letter-spacing=".08em">UI</text><text data-role="text" x="160.0" y="178" fill="#F0F6FC" font-family="'Geist',system-ui,sans-serif" font-size="16" font-weight="600" text-anchor="middle">Main Window</text><text data-role="text" x="160.0" y="199" fill="#8B949E" font-family="'Geist Mono',ui-monospace,monospace" font-size="11" font-weight="400" text-anchor="middle">ShutdownTimerApp</text><rect x="430" y="130" width="200" height="96" rx="6" fill="#0D1117"/><rect data-role="node" x="430" y="130" width="200" height="96" rx="6" fill="#fb7185" fill-opacity="0.10" stroke="#FB7185" stroke-width="1.4"/><rect x="440" y="138" width="36" height="14" rx="2" fill="none" stroke="#FB7185" stroke-opacity=".45" stroke-width=".8"/><text data-role="text" x="458" y="148" fill="#FB7185" font-family="'Geist Mono',ui-monospace,monospace" font-size="8" font-weight="600" text-anchor="middle" letter-spacing=".08em">CORE</text><text data-role="text" x="530.0" y="178" fill="#F0F6FC" font-family="'Geist',system-ui,sans-serif" font-size="16" font-weight="600" text-anchor="middle">Scheduler Controller</text><text data-role="text" x="530.0" y="199" fill="#8B949E" font-family="'Geist Mono',ui-monospace,monospace" font-size="11" font-weight="400" text-anchor="middle">validate · route · cancel</text><rect x="760" y="130" width="180" height="96" rx="6" fill="#0D1117"/><rect data-role="node" x="760" y="130" width="180" height="96" rx="6" fill="#161B22" stroke="#30363D" stroke-width="1"/><rect x="770" y="138" width="36" height="14" rx="2" fill="none" stroke="#30363D" stroke-opacity=".45" stroke-width=".8"/><text data-role="text" x="788" y="148" fill="#30363D" font-family="'Geist Mono',ui-monospace,monospace" font-size="8" font-weight="600" text-anchor="middle" letter-spacing=".08em">GATE</text><text data-role="text" x="850.0" y="178" fill="#F0F6FC" font-family="'Geist',system-ui,sans-serif" font-size="16" font-weight="600" text-anchor="middle">Power Gateway</text><text data-role="text" x="850.0" y="199" fill="#8B949E" font-family="'Geist Mono',ui-monospace,monospace" font-size="11" font-weight="400" text-anchor="middle">shutdown · rundll32</text><rect x="70" y="334" width="180" height="96" rx="6" fill="#0D1117"/><rect data-role="node" x="70" y="334" width="180" height="96" rx="6" fill="#161B22" stroke="#30363D" stroke-width="1"/><rect x="80" y="342" width="36" height="14" rx="2" fill="none" stroke="#30363D" stroke-opacity=".45" stroke-width=".8"/><text data-role="text" x="98" y="352" fill="#30363D" font-family="'Geist Mono',ui-monospace,monospace" font-size="8" font-weight="600" text-anchor="middle" letter-spacing=".08em">I18N</text><text data-role="text" x="160.0" y="382" fill="#F0F6FC" font-family="'Geist',system-ui,sans-serif" font-size="16" font-weight="600" text-anchor="middle">Theme &amp; Localization</text><text data-role="text" x="160.0" y="403" fill="#8B949E" font-family="'Geist Mono',ui-monospace,monospace" font-size="11" font-weight="400" text-anchor="middle">QSS · EN / TH · SVG</text><rect x="300" y="334" width="180" height="96" rx="6" fill="#0D1117"/><rect data-role="node" x="300" y="334" width="180" height="96" rx="6" fill="#161B22" stroke="#30363D" stroke-width="1"/><rect x="310" y="342" width="36" height="14" rx="2" fill="none" stroke="#30363D" stroke-opacity=".45" stroke-width=".8"/><text data-role="text" x="328" y="352" fill="#30363D" font-family="'Geist Mono',ui-monospace,monospace" font-size="8" font-weight="600" text-anchor="middle" letter-spacing=".08em">ADAPT</text><text data-role="text" x="390.0" y="382" fill="#F0F6FC" font-family="'Geist',system-ui,sans-serif" font-size="16" font-weight="600" text-anchor="middle">Compatibility Adapters</text><text data-role="text" x="390.0" y="403" fill="#8B949E" font-family="'Geist Mono',ui-monospace,monospace" font-size="11" font-weight="400" text-anchor="middle">SpinBoxProxy · DateTimeProxy</text><rect x="530" y="334" width="200" height="96" rx="6" fill="#0D1117"/><rect data-role="node" x="530" y="334" width="200" height="96" rx="6" fill="#161B22" stroke="#30363D" stroke-width="1"/><rect x="540" y="342" width="36" height="14" rx="2" fill="none" stroke="#30363D" stroke-opacity=".45" stroke-width=".8"/><text data-role="text" x="558" y="352" fill="#30363D" font-family="'Geist Mono',ui-monospace,monospace" font-size="8" font-weight="600" text-anchor="middle" letter-spacing=".08em">TIMER</text><text data-role="text" x="630.0" y="382" fill="#F0F6FC" font-family="'Geist',system-ui,sans-serif" font-size="16" font-weight="600" text-anchor="middle">Countdown Engine</text><text data-role="text" x="630.0" y="403" fill="#8B949E" font-family="'Geist Mono',ui-monospace,monospace" font-size="11" font-weight="400" text-anchor="middle">QTimer · update_countdown</text><rect x="780" y="334" width="180" height="96" rx="6" fill="#0D1117"/><rect data-role="node" x="780" y="334" width="180" height="96" rx="6" fill="#21262D" stroke="#8B949E" stroke-width="1"/><rect x="790" y="342" width="36" height="14" rx="2" fill="none" stroke="#8B949E" stroke-opacity=".45" stroke-width=".8"/><text data-role="text" x="808" y="352" fill="#8B949E" font-family="'Geist Mono',ui-monospace,monospace" font-size="8" font-weight="600" text-anchor="middle" letter-spacing=".08em">REPO</text><text data-role="text" x="870.0" y="382" fill="#F0F6FC" font-family="'Geist',system-ui,sans-serif" font-size="16" font-weight="600" text-anchor="middle">Settings Repository</text><text data-role="text" x="870.0" y="403" fill="#8B949E" font-family="'Geist Mono',ui-monospace,monospace" font-size="11" font-weight="400" text-anchor="middle">timer + window JSON</text><rect x="1080" y="130" width="160" height="96" rx="6" fill="#0D1117"/><rect data-role="node" x="1080" y="130" width="160" height="96" rx="6" fill="#f0f6fc" fill-opacity="0.025" stroke="#6E7681" stroke-width="1"/><rect x="1090" y="138" width="36" height="14" rx="2" fill="none" stroke="#6E7681" stroke-opacity=".45" stroke-width=".8"/><text data-role="text" x="1108" y="148" fill="#6E7681" font-family="'Geist Mono',ui-monospace,monospace" font-size="8" font-weight="600" text-anchor="middle" letter-spacing=".08em">SYSTEM</text><text data-role="text" x="1160.0" y="178" fill="#F0F6FC" font-family="'Geist',system-ui,sans-serif" font-size="16" font-weight="600" text-anchor="middle">Microsoft Windows</text><text data-role="text" x="1160.0" y="199" fill="#8B949E" font-family="'Geist Mono',ui-monospace,monospace" font-size="11" font-weight="400" text-anchor="middle">power management</text><text data-role="text" x="534" y="492" fill="#6E7681" font-family="'Instrument Serif',serif" font-size="12" font-weight="400" text-anchor="middle" font-style="italic">Logical components only — currently co-located in shutdown_timer.py, not separately deployed.</text><line x1="40" y1="588" x2="1240" y2="588" stroke="#f0f6fc" stroke-opacity="0.18" stroke-width=".8"/><text data-role="text" x="40" y="612" fill="#8B949E" font-family="'Geist Mono',ui-monospace,monospace" font-size="8" font-weight="600" text-anchor="start" letter-spacing=".18em">LEGEND</text><rect x="140" y="602" width="18" height="12" rx="2" fill="#fb7185" fill-opacity="0.10" stroke="#FB7185"/><text data-role="text" x="172" y="611" fill="#8B949E" font-family="'Geist',system-ui,sans-serif" font-size="9" font-weight="400" text-anchor="start">Core orchestration</text><line x1="348" y1="608" x2="372" y2="608" stroke="#8B949E" stroke-width="1.2" marker-end="url(#arr)"/><text data-role="text" x="380" y="611" fill="#8B949E" font-family="'Geist',system-ui,sans-serif" font-size="9" font-weight="400" text-anchor="start">Internal dependency</text><rect x="564" y="602" width="18" height="12" rx="2" fill="#f0f6fc" fill-opacity="0.025" stroke="#6E7681"/><text data-role="text" x="596" y="611" fill="#8B949E" font-family="'Geist',system-ui,sans-serif" font-size="9" font-weight="400" text-anchor="start">External system</text>
</g>
</svg>